<?xml version="1.0" encoding="UTF-8"?>
<!DOCTYPE svg PUBLIC "-//W3C//DTD SVG 1.1//EN" "http://www.w3.org/Graphics/SVG/1.1/DTD/svg11.dtd">
<!-- Creator: CorelDRAW 2020 (64-Bit) -->
<svg xmlns="http://www.w3.org/2000/svg" xml:space="preserve" width="30px" height="30px" version="1.1" style="shape-rendering:geometricPrecision; text-rendering:geometricPrecision; image-rendering:optimizeQuality; fill-rule:evenodd; clip-rule:evenodd"
viewBox="0 0 30 30"
 xmlns:xlink="http://www.w3.org/1999/xlink"
 xmlns:xodm="http://www.corel.com/coreldraw/odm/2003">
 <defs>
  <style type="text/css">
   <![CDATA[
    .fil0 {fill:#108EDC}
    .fil191 {fill:#108EDD}
    .fil3 {fill:#118FDA}
    .fil2 {fill:#118FDB}
    .fil1 {fill:#118FDC}
    .fil5 {fill:#1290D9}
    .fil4 {fill:#1290DA}
    .fil7 {fill:#1391D7}
    .fil6 {fill:#1391D8}
    .fil8 {fill:#1392D7}
    .fil10 {fill:#1492D5}
    .fil9 {fill:#1492D6}
    .fil13 {fill:#1593D3}
    .fil12 {fill:#1593D4}
    .fil11 {fill:#1593D5}
    .fil15 {fill:#1694D2}
    .fil14 {fill:#1694D3}
    .fil16 {fill:#1695D1}
    .fil18 {fill:#1795D0}
    .fil17 {fill:#1795D1}
    .fil20 {fill:#1896CE}
    .fil19 {fill:#1896CF}
    .fil21 {fill:#1897CE}
    .fil22 {fill:#1997CD}
    .fil23 {fill:#1998CC}
    .fil25 {fill:#1A98CA}
    .fil24 {fill:#1A98CB}
    .fil26 {fill:#1A99CA}
    .fil27 {fill:#1B99C9}
    .fil28 {fill:#1B9AC8}
    .fil30 {fill:#1C9AC7}
    .fil29 {fill:#1C9AC8}
    .fil32 {fill:#1C9BC6}
    .fil31 {fill:#1C9BC7}
    .fil34 {fill:#1D9BC5}
    .fil33 {fill:#1D9BC6}
    .fil35 {fill:#1D9CC5}
    .fil36 {fill:#1E9CC4}
    .fil37 {fill:#1E9DC3}
    .fil38 {fill:#1F9DC2}
    .fil39 {fill:#1F9EC1}
    .fil40 {fill:#209EC0}
    .fil41 {fill:#209FBF}
    .fil43 {fill:#219FBE}
    .fil42 {fill:#219FBF}
    .fil45 {fill:#21A0BD}
    .fil44 {fill:#21A0BE}
    .fil47 {fill:#22A0BC}
    .fil46 {fill:#22A0BD}
    .fil48 {fill:#22A1BC}
    .fil50 {fill:#23A1BA}
    .fil49 {fill:#23A1BB}
    .fil52 {fill:#23A2B9}
    .fil51 {fill:#23A2BA}
    .fil53 {fill:#24A2B9}
    .fil54 {fill:#24A3B8}
    .fil55 {fill:#25A3B7}
    .fil56 {fill:#25A4B6}
    .fil57 {fill:#26A4B5}
    .fil59 {fill:#26A5B4}
    .fil58 {fill:#26A5B5}
    .fil60 {fill:#27A5B4}
    .fil62 {fill:#27A6B2}
    .fil61 {fill:#27A6B3}
    .fil63 {fill:#28A6B1}
    .fil65 {fill:#28A7B0}
    .fil64 {fill:#28A7B1}
    .fil66 {fill:#29A7B0}
    .fil67 {fill:#29A8AF}
    .fil68 {fill:#2AA8AE}
    .fil70 {fill:#2AA9AD}
    .fil69 {fill:#2AA9AE}
    .fil71 {fill:#2BA9AC}
    .fil73 {fill:#2BAAAB}
    .fil72 {fill:#2BAAAC}
    .fil74 {fill:#2CAAAB}
    .fil76 {fill:#2CABA9}
    .fil75 {fill:#2CABAA}
    .fil78 {fill:#2DACA7}
    .fil77 {fill:#2DACA8}
    .fil79 {fill:#2EACA7}
    .fil81 {fill:#2EADA5}
    .fil80 {fill:#2EADA6}
    .fil83 {fill:#2FAEA4}
    .fil82 {fill:#2FAEA5}
    .fil85 {fill:#30AFA2}
    .fil84 {fill:#30AFA3}
    .fil87 {fill:#31B0A0}
    .fil86 {fill:#31B0A1}
    .fil89 {fill:#32B19E}
    .fil88 {fill:#32B19F}
    .fil90 {fill:#33B19E}
    .fil92 {fill:#33B29C}
    .fil91 {fill:#33B29D}
    .fil95 {fill:#34B39A}
    .fil94 {fill:#34B39B}
    .fil93 {fill:#34B39C}
    .fil97 {fill:#35B499}
    .fil96 {fill:#35B49A}
    .fil99 {fill:#36B597}
    .fil98 {fill:#36B598}
    .fil101 {fill:#37B695}
    .fil100 {fill:#37B696}
    .fil102 {fill:#37B795}
    .fil104 {fill:#38B793}
    .fil103 {fill:#38B794}
    .fil105 {fill:#38B893}
    .fil107 {fill:#39B891}
    .fil106 {fill:#39B892}
    .fil109 {fill:#3AB990}
    .fil108 {fill:#3AB991}
    .fil110 {fill:#3ABA8F}
    .fil112 {fill:#3BBA8E}
    .fil111 {fill:#3BBA8F}
    .fil113 {fill:#3BBB8D}
    .fil115 {fill:#3CBB8C}
    .fil114 {fill:#3CBB8D}
    .fil116 {fill:#3CBC8C}
    .fil117 {fill:#3DBC8B}
    .fil118 {fill:#3DBD8A}
    .fil120 {fill:#3EBD89}
    .fil119 {fill:#3EBD8A}
    .fil121 {fill:#3EBE88}
    .fil123 {fill:#3FBE87}
    .fil122 {fill:#3FBE88}
    .fil125 {fill:#3FBF86}
    .fil124 {fill:#3FBF87}
    .fil127 {fill:#40BF85}
    .fil126 {fill:#40BF86}
    .fil128 {fill:#40C085}
    .fil130 {fill:#41C083}
    .fil129 {fill:#41C084}
    .fil131 {fill:#41C183}
    .fil132 {fill:#42C182}
    .fil133 {fill:#42C281}
    .fil134 {fill:#43C280}
    .fil135 {fill:#43C37F}
    .fil136 {fill:#44C37E}
    .fil137 {fill:#44C47D}
    .fil139 {fill:#45C47C}
    .fil138 {fill:#45C47D}
    .fil141 {fill:#45C57B}
    .fil140 {fill:#45C57C}
    .fil143 {fill:#46C57A}
    .fil142 {fill:#46C57B}
    .fil145 {fill:#46C679}
    .fil144 {fill:#46C67A}
    .fil147 {fill:#47C678}
    .fil146 {fill:#47C679}
    .fil149 {fill:#47C777}
    .fil148 {fill:#47C778}
    .fil150 {fill:#48C777}
    .fil151 {fill:#48C876}
    .fil152 {fill:#49C875}
    .fil153 {fill:#49C974}
    .fil154 {fill:#4AC974}
    .fil156 {fill:#4ACA72}
    .fil155 {fill:#4ACA73}
    .fil157 {fill:#4BCA72}
    .fil159 {fill:#4BCB70}
    .fil158 {fill:#4BCB71}
    .fil160 {fill:#4CCB70}
    .fil161 {fill:#4CCC6F}
    .fil162 {fill:#4DCC6E}
    .fil164 {fill:#4DCD6D}
    .fil163 {fill:#4DCD6E}
    .fil165 {fill:#4ECD6C}
    .fil167 {fill:#4ECE6B}
    .fil166 {fill:#4ECE6C}
    .fil168 {fill:#4FCE6A}
    .fil170 {fill:#4FCF69}
    .fil169 {fill:#4FCF6A}
    .fil171 {fill:#50CF69}
    .fil173 {fill:#50D067}
    .fil172 {fill:#50D068}
    .fil174 {fill:#51D067}
    .fil176 {fill:#51D165}
    .fil175 {fill:#51D166}
    .fil177 {fill:#52D165}
    .fil179 {fill:#52D263}
    .fil178 {fill:#52D264}
    .fil181 {fill:#53D362}
    .fil180 {fill:#53D363}
    .fil182 {fill:#54D361}
    .fil184 {fill:#54D460}
    .fil183 {fill:#54D461}
    .fil186 {fill:#55D55E}
    .fil185 {fill:#55D55F}
    .fil188 {fill:#56D65C}
    .fil187 {fill:#56D65D}
    .fil189 {fill:#57D75B}
    .fil190 {fill:#57D75B}
   ]]>
  </style>
    <clipPath id="id0">
     <path d="M6.44 20.81l8.14 0 0 6.92 -7.1 0c-1.2,-0.02 -2,-1.03 -2.46,-1.77l0 0c-0.05,-0.07 -0.09,-0.16 -0.13,-0.24l0.13 0.24c-0.21,-0.33 -0.86,-1.58 -1.57,-2.92l-0.92 -1.72 0.01 0c-0.53,-1.01 -0.99,-1.87 -1.18,-2.19 -0.55,-0.88 -0.38,-2.15 -0.08,-2.7l2.06 -3.75 -1.02 -0.63 5.5 -0.72 2.16 5.45 -1.02 -0.63 -2.52 4.66 0 0 0 0zm5.12 -19.8c-0.82,0.06 -2.04,0.3 -2.66,1.39l-3.55 6.58 5.61 3.46 4.2 -7.77 2.57 4.77 -1.21 0.76 5.5 0.72 2.17 -5.45 -1.03 0.63 -2 -3.79c-0.3,-0.55 -1.24,-1.34 -2.23,-1.27 -0.06,0 -0.14,0 -0.23,0.01 0.07,-0.01 0.15,-0.02 0.23,-0.02 -0.56,0.02 -1.45,0.02 -2.56,0.01 -1.94,-0.02 -4.29,-0.06 -4.81,-0.03zm0.32 0c-0.11,0 -0.21,0 -0.32,0l0 0c0.1,-0.01 0.21,-0.01 0.32,0zm16.63 18.53c-0.14,0.29 -0.61,1.15 -1.18,2.17l-0.83 1.56 -0.02 -0.02c-0.75,1.36 -1.47,2.67 -1.68,3.1 -0.44,0.95 -1.55,1.42 -2.14,1.42l-4.08 -0.03 0 1.26 -3.33 -4.73 3.33 -4.73 0 1.27 5.04 0 -4.07 -7.54 5.61 -3.46 3.55 6.58c0.58,1.11 0.17,2.36 -0.2,3.15zm-0.13 0.24c0.05,-0.07 0.09,-0.15 0.13,-0.24l-0.13 0.24z"/>
    </clipPath>
 </defs>
 <g id="Layer_x0020_1">
  <metadata id="CorelCorpID_0Corel-Layer"/>
  <g>
   <g style="clip-path:url(#id0)">
    <polygon class="fil0" points="15.85,15.26 32.23,5.74 32.65,6.53 "/>
    <polygon id="1" class="fil1" points="15.85,15.26 32.58,6.4 32.91,7.06 "/>
    <polygon id="2" class="fil2" points="15.85,15.26 32.85,6.93 33.17,7.6 "/>
    <polygon id="3" class="fil2" points="15.85,15.26 33.1,7.46 33.41,8.14 "/>
    <polygon id="4" class="fil3" points="15.85,15.26 33.35,8 33.64,8.68 "/>
    <polygon id="5" class="fil4" points="15.85,15.26 33.58,8.54 33.86,9.23 "/>
    <polygon id="6" class="fil5" points="15.85,15.26 33.81,9.09 34.07,9.78 "/>
    <polygon id="7" class="fil5" points="15.85,15.26 34.02,9.64 34.27,10.34 "/>
    <polygon id="8" class="fil6" points="15.85,15.26 34.22,10.2 34.46,10.89 "/>
    <polygon id="9" class="fil6" points="15.85,15.26 34.41,10.75 34.64,11.45 "/>
    <polygon id="10" class="fil7" points="15.85,15.26 34.6,11.31 34.81,12.02 "/>
    <polygon id="11" class="fil8" points="15.85,15.26 34.76,11.88 34.96,12.58 "/>
    <polygon id="12" class="fil9" points="15.85,15.26 34.92,12.44 35.11,13.15 "/>
    <polygon id="13" class="fil9" points="15.85,15.26 35.07,13.01 35.24,13.72 "/>
    <polygon id="14" class="fil10" points="15.85,15.26 35.2,13.58 35.36,14.29 "/>
    <polygon id="15" class="fil11" points="15.85,15.26 35.33,14.14 35.47,14.86 "/>
    <polygon id="16" class="fil12" points="15.85,15.26 35.44,14.71 35.56,15.43 "/>
    <polygon id="17" class="fil13" points="15.85,15.26 35.54,15.28 35.65,15.99 "/>
    <polygon id="18" class="fil14" points="15.85,15.26 35.63,15.85 35.72,16.56 "/>
    <polygon id="19" class="fil15" points="15.85,15.26 35.7,16.42 35.78,17.13 "/>
    <polygon id="20" class="fil15" points="15.85,15.26 35.76,16.99 35.83,17.7 "/>
    <polygon id="21" class="fil16" points="15.85,15.26 35.82,17.56 35.87,18.27 "/>
    <polygon id="22" class="fil17" points="15.85,15.26 35.86,18.12 35.89,18.83 "/>
    <polygon id="23" class="fil18" points="15.85,15.26 35.88,18.69 35.9,19.39 "/>
    <polygon id="24" class="fil18" points="15.85,15.26 35.9,19.25 35.9,19.95 "/>
    <polygon id="25" class="fil19" points="15.85,15.26 35.9,19.81 35.89,20.51 "/>
    <polygon id="26" class="fil19" points="15.85,15.26 35.9,20.37 35.87,21.06 "/>
    <polygon id="27" class="fil20" points="15.85,15.26 35.87,20.92 35.83,21.61 "/>
    <polygon id="28" class="fil21" points="15.85,15.26 35.84,21.47 35.79,22.16 "/>
    <polygon id="29" class="fil22" points="15.85,15.26 35.8,22.02 35.73,22.7 "/>
    <polygon id="30" class="fil22" points="15.85,15.26 35.74,22.56 35.66,23.24 "/>
    <polygon id="31" class="fil23" points="15.85,15.26 35.67,23.1 35.57,23.77 "/>
    <polygon id="32" class="fil24" points="15.85,15.26 35.59,23.64 35.48,24.3 "/>
    <polygon id="33" class="fil24" points="15.85,15.26 35.5,24.16 35.37,24.82 "/>
    <polygon id="34" class="fil25" points="15.85,15.26 35.4,24.69 35.25,25.33 "/>
    <polygon id="35" class="fil26" points="15.85,15.26 35.28,25.2 35.12,25.84 "/>
    <polygon id="36" class="fil27" points="15.85,15.26 35.15,25.72 34.98,26.35 "/>
    <polygon id="37" class="fil27" points="15.85,15.26 35.01,26.22 34.82,26.85 "/>
    <polygon id="38" class="fil28" points="15.85,15.26 34.86,26.72 34.66,27.34 "/>
    <polygon id="39" class="fil29" points="15.85,15.26 34.7,27.21 34.48,27.82 "/>
    <polygon id="40" class="fil30" points="15.85,15.26 34.52,27.7 34.29,28.29 "/>
    <polygon id="41" class="fil31" points="15.85,15.26 34.34,28.18 34.09,28.76 "/>
    <polygon id="42" class="fil32" points="15.85,15.26 34.14,28.65 33.88,29.22 "/>
    <polygon id="43" class="fil33" points="15.85,15.26 33.94,29.11 33.66,29.67 "/>
    <polygon id="44" class="fil34" points="15.85,15.26 33.72,29.56 33.43,30.11 "/>
    <polygon id="45" class="fil35" points="15.85,15.26 33.49,30 33.19,30.55 "/>
    <polygon id="46" class="fil36" points="15.85,15.26 33.25,30.44 32.94,30.97 "/>
    <polygon id="47" class="fil36" points="15.85,15.26 33,30.87 32.68,31.39 "/>
    <polygon id="48" class="fil37" points="15.85,15.26 32.74,31.28 32.4,31.79 "/>
    <polygon id="49" class="fil38" points="15.85,15.26 32.47,31.69 32.12,32.19 "/>
    <polygon id="50" class="fil38" points="15.85,15.26 32.19,32.09 31.83,32.57 "/>
    <polygon id="51" class="fil39" points="15.85,15.26 31.9,32.48 31.52,32.95 "/>
    <polygon id="52" class="fil39" points="15.85,15.26 31.6,32.85 31.21,33.31 "/>
    <polygon id="53" class="fil40" points="15.85,15.26 31.29,33.22 30.89,33.66 "/>
    <polygon id="54" class="fil40" points="15.85,15.26 30.97,33.57 30.56,34.01 "/>
    <polygon id="55" class="fil41" points="15.85,15.26 30.64,33.92 30.22,34.34 "/>
    <polygon id="56" class="fil42" points="15.85,15.26 30.31,34.25 29.88,34.65 "/>
    <polygon id="57" class="fil43" points="15.85,15.26 29.96,34.57 29.52,34.96 "/>
    <polygon id="58" class="fil44" points="15.85,15.26 29.61,34.89 29.16,35.26 "/>
    <polygon id="59" class="fil45" points="15.85,15.26 29.25,35.18 28.78,35.54 "/>
    <polygon id="60" class="fil46" points="15.85,15.26 28.88,35.47 28.4,35.81 "/>
    <polygon id="61" class="fil47" points="15.85,15.26 28.5,35.74 28.02,36.07 "/>
    <polygon id="62" class="fil48" points="15.85,15.26 28.11,36.01 27.62,36.32 "/>
    <polygon id="63" class="fil49" points="15.85,15.26 27.72,36.26 27.22,36.55 "/>
    <polygon id="64" class="fil50" points="15.85,15.26 27.32,36.49 26.81,36.77 "/>
    <polygon id="65" class="fil51" points="15.85,15.26 26.91,36.72 26.39,36.98 "/>
    <polygon id="66" class="fil52" points="15.85,15.26 26.5,36.93 25.97,37.18 "/>
    <polygon id="67" class="fil53" points="15.85,15.26 26.08,37.13 25.54,37.36 "/>
    <polygon id="68" class="fil54" points="15.85,15.26 25.65,37.31 25.11,37.52 "/>
    <polygon id="69" class="fil54" points="15.85,15.26 25.22,37.48 24.67,37.68 "/>
    <polygon id="70" class="fil55" points="15.85,15.26 24.78,37.64 24.23,37.82 "/>
    <polygon id="71" class="fil55" points="15.85,15.26 24.34,37.78 23.78,37.95 "/>
    <polygon id="72" class="fil56" points="15.85,15.26 23.89,37.92 23.32,38.06 "/>
    <polygon id="73" class="fil56" points="15.85,15.26 23.44,38.03 22.86,38.16 "/>
    <polygon id="74" class="fil57" points="15.85,15.26 22.98,38.14 22.4,38.25 "/>
    <polygon id="75" class="fil58" points="15.85,15.26 22.52,38.23 21.93,38.32 "/>
    <polygon id="76" class="fil59" points="15.85,15.26 22.05,38.3 21.46,38.38 "/>
    <polygon id="77" class="fil60" points="15.85,15.26 21.58,38.37 20.99,38.43 "/>
    <polygon id="78" class="fil61" points="15.85,15.26 21.11,38.41 20.51,38.46 "/>
    <polygon id="79" class="fil61" points="15.85,15.26 20.63,38.45 20.03,38.47 "/>
    <polygon id="80" class="fil62" points="15.85,15.26 20.15,38.47 19.55,38.48 "/>
    <polygon id="81" class="fil63" points="15.85,15.26 19.67,38.48 19.06,38.47 "/>
    <polygon id="82" class="fil64" points="15.85,15.26 19.18,38.47 18.58,38.44 "/>
    <polygon id="83" class="fil65" points="15.85,15.26 18.7,38.45 18.09,38.4 "/>
    <polygon id="84" class="fil66" points="15.85,15.26 18.21,38.41 17.6,38.35 "/>
    <polygon id="85" class="fil67" points="15.85,15.26 17.72,38.36 17.11,38.28 "/>
    <polygon id="86" class="fil67" points="15.85,15.26 17.23,38.3 16.62,38.2 "/>
    <polygon id="87" class="fil68" points="15.85,15.26 16.74,38.22 16.12,38.11 "/>
    <polygon id="88" class="fil69" points="15.85,15.26 16.25,38.13 15.63,38 "/>
    <polygon id="89" class="fil70" points="15.85,15.26 15.75,38.03 15.14,37.88 "/>
    <polygon id="90" class="fil70" points="15.85,15.26 15.26,37.91 14.65,37.74 "/>
    <polygon id="91" class="fil71" points="15.85,15.26 14.77,37.78 14.16,37.59 "/>
    <polygon id="92" class="fil72" points="15.85,15.26 14.28,37.63 13.67,37.43 "/>
    <polygon id="93" class="fil73" points="15.85,15.26 13.79,37.47 13.18,37.26 "/>
    <polygon id="94" class="fil74" points="15.85,15.26 13.3,37.3 12.69,37.07 "/>
    <polygon id="95" class="fil75" points="15.85,15.26 12.81,37.11 12.21,36.86 "/>
    <polygon id="96" class="fil76" points="15.85,15.26 12.33,36.91 11.72,36.65 "/>
    <polygon id="97" class="fil76" points="15.85,15.26 11.85,36.7 11.24,36.42 "/>
    <polygon id="98" class="fil77" points="15.85,15.26 11.36,36.48 10.77,36.18 "/>
    <polygon id="99" class="fil77" points="15.85,15.26 10.89,36.24 10.29,35.93 "/>
    <polygon id="100" class="fil78" points="15.85,15.26 10.41,35.99 9.82,35.66 "/>
    <polygon id="101" class="fil79" points="15.85,15.26 9.94,35.73 9.35,35.38 "/>
    <polygon id="102" class="fil80" points="15.85,15.26 9.47,35.45 8.89,35.09 "/>
    <polygon id="103" class="fil80" points="15.85,15.26 9.01,35.16 8.43,34.79 "/>
    <polygon id="104" class="fil81" points="15.85,15.26 8.55,34.86 7.98,34.48 "/>
    <polygon id="105" class="fil82" points="15.85,15.26 8.09,34.55 7.53,34.15 "/>
    <polygon id="106" class="fil83" points="15.85,15.26 7.64,34.23 7.08,33.81 "/>
    <polygon id="107" class="fil83" points="15.85,15.26 7.19,33.9 6.64,33.47 "/>
    <polygon id="108" class="fil84" points="15.85,15.26 6.75,33.55 6.21,33.11 "/>
    <polygon id="109" class="fil84" points="15.85,15.26 6.32,33.19 5.78,32.74 "/>
    <polygon id="110" class="fil85" points="15.85,15.26 5.89,32.83 5.36,32.36 "/>
    <polygon id="111" class="fil85" points="15.85,15.26 5.46,32.45 4.94,31.97 "/>
    <polygon id="112" class="fil86" points="15.85,15.26 5.04,32.06 4.53,31.56 "/>
    <polygon id="113" class="fil87" points="15.85,15.26 4.63,31.66 4.13,31.15 "/>
    <polygon id="114" class="fil87" points="15.85,15.26 4.23,31.26 3.73,30.73 "/>
    <polygon id="115" class="fil88" points="15.85,15.26 3.83,30.84 3.34,30.3 "/>
    <polygon id="116" class="fil88" points="15.85,15.26 3.44,30.41 2.96,29.87 "/>
    <polygon id="117" class="fil89" points="15.85,15.26 3.06,29.98 2.59,29.42 "/>
    <polygon id="118" class="fil90" points="15.85,15.26 2.68,29.53 2.22,28.96 "/>
    <polygon id="119" class="fil91" points="15.85,15.26 2.32,29.08 1.87,28.5 "/>
    <polygon id="120" class="fil91" points="15.85,15.26 1.96,28.61 1.52,28.03 "/>
    <polygon id="121" class="fil92" points="15.85,15.26 1.61,28.14 1.18,27.55 "/>
    <polygon id="122" class="fil93" points="15.85,15.26 1.26,27.67 0.85,27.06 "/>
    <polygon id="123" class="fil94" points="15.85,15.26 0.93,27.18 0.53,26.57 "/>
    <polygon id="124" class="fil94" points="15.85,15.26 0.61,26.69 0.21,26.06 "/>
    <polygon id="125" class="fil95" points="15.85,15.26 0.29,26.19 -0.09,25.56 "/>
    <polygon id="126" class="fil96" points="15.85,15.26 -0.01,25.68 -0.38,25.04 "/>
    <polygon id="127" class="fil97" points="15.85,15.26 -0.31,25.17 -0.67,24.52 "/>
    <polygon id="128" class="fil97" points="15.85,15.26 -0.6,24.65 -0.94,24 "/>
    <polygon id="129" class="fil98" points="15.85,15.26 -0.87,24.13 -1.21,23.47 "/>
    <polygon id="130" class="fil98" points="15.85,15.26 -1.14,23.6 -1.46,22.93 "/>
    <polygon id="131" class="fil99" points="15.85,15.26 -1.39,23.07 -1.7,22.39 "/>
    <polygon id="132" class="fil99" points="15.85,15.26 -1.64,22.53 -1.93,21.85 "/>
    <polygon id="133" class="fil100" points="15.85,15.26 -1.88,21.98 -2.16,21.3 "/>
    <polygon id="134" class="fil100" points="15.85,15.26 -2.1,21.44 -2.37,20.75 "/>
    <polygon id="135" class="fil101" points="15.85,15.26 -2.31,20.89 -2.57,20.19 "/>
    <polygon id="136" class="fil102" points="15.85,15.26 -2.52,20.33 -2.76,19.63 "/>
    <polygon id="137" class="fil103" points="15.85,15.26 -2.71,19.77 -2.93,19.07 "/>
    <polygon id="138" class="fil103" points="15.85,15.26 -2.89,19.21 -3.1,18.51 "/>
    <polygon id="139" class="fil104" points="15.85,15.26 -3.06,18.65 -3.26,17.95 "/>
    <polygon id="140" class="fil105" points="15.85,15.26 -3.22,18.09 -3.4,17.38 "/>
    <polygon id="141" class="fil106" points="15.85,15.26 -3.36,17.52 -3.53,16.81 "/>
    <polygon id="142" class="fil106" points="15.85,15.26 -3.5,16.95 -3.65,16.24 "/>
    <polygon id="143" class="fil107" points="15.85,15.26 -3.62,16.38 -3.76,15.67 "/>
    <polygon id="144" class="fil108" points="15.85,15.26 -3.73,15.81 -3.86,15.1 "/>
    <polygon id="145" class="fil109" points="15.85,15.26 -3.83,15.25 -3.94,14.53 "/>
    <polygon id="146" class="fil109" points="15.85,15.26 -3.92,14.68 -4.01,13.96 "/>
    <polygon id="147" class="fil110" points="15.85,15.26 -3.99,14.11 -4.07,13.4 "/>
    <polygon id="148" class="fil111" points="15.85,15.26 -4.06,13.54 -4.12,12.83 "/>
    <polygon id="149" class="fil112" points="15.85,15.26 -4.11,12.97 -4.16,12.26 "/>
    <polygon id="150" class="fil112" points="15.85,15.26 -4.15,12.4 -4.18,11.7 "/>
    <polygon id="151" class="fil113" points="15.85,15.26 -4.18,11.84 -4.2,11.14 "/>
    <polygon id="152" class="fil114" points="15.85,15.26 -4.19,11.28 -4.2,10.58 "/>
    <polygon id="153" class="fil114" points="15.85,15.26 -4.2,10.72 -4.19,10.02 "/>
    <polygon id="154" class="fil115" points="15.85,15.26 -4.19,10.16 -4.16,9.47 "/>
    <polygon id="155" class="fil116" points="15.85,15.26 -4.17,9.61 -4.13,8.92 "/>
    <polygon id="156" class="fil117" points="15.85,15.26 -4.14,9.06 -4.08,8.37 "/>
    <polygon id="157" class="fil117" points="15.85,15.26 -4.09,8.51 -4.02,7.83 "/>
    <polygon id="158" class="fil118" points="15.85,15.26 -4.03,7.97 -3.95,7.29 "/>
    <polygon id="159" class="fil119" points="15.85,15.26 -3.97,7.43 -3.86,6.76 "/>
    <polygon id="160" class="fil120" points="15.85,15.26 -3.88,6.89 -3.77,6.23 "/>
    <polygon id="161" class="fil120" points="15.85,15.26 -3.79,6.36 -3.66,5.71 "/>
    <polygon id="162" class="fil121" points="15.85,15.26 -3.69,5.84 -3.54,5.19 "/>
    <polygon id="163" class="fil122" points="15.85,15.26 -3.57,5.32 -3.41,4.68 "/>
    <polygon id="164" class="fil123" points="15.85,15.26 -3.44,4.81 -3.27,4.18 "/>
    <polygon id="165" class="fil124" points="15.85,15.26 -3.3,4.31 -3.12,3.68 "/>
    <polygon id="166" class="fil125" points="15.85,15.26 -3.15,3.81 -2.95,3.19 "/>
    <polygon id="167" class="fil126" points="15.85,15.26 -2.99,3.32 -2.77,2.71 "/>
    <polygon id="168" class="fil127" points="15.85,15.26 -2.82,2.83 -2.59,2.23 "/>
    <polygon id="169" class="fil128" points="15.85,15.26 -2.63,2.35 -2.39,1.77 "/>
    <polygon id="170" class="fil129" points="15.85,15.26 -2.44,1.88 -2.18,1.31 "/>
    <polygon id="171" class="fil129" points="15.85,15.26 -2.23,1.42 -1.96,0.86 "/>
    <polygon id="172" class="fil130" points="15.85,15.26 -2.01,0.97 -1.73,0.41 "/>
    <polygon id="173" class="fil131" points="15.85,15.26 -1.78,0.52 -1.48,-0.02 "/>
    <polygon id="174" class="fil132" points="15.85,15.26 -1.54,0.09 -1.23,-0.44 "/>
    <polygon id="175" class="fil132" points="15.85,15.26 -1.29,-0.34 -0.97,-0.86 "/>
    <polygon id="176" class="fil133" points="15.85,15.26 -1.03,-0.75 -0.7,-1.26 "/>
    <polygon id="177" class="fil133" points="15.85,15.26 -0.76,-1.16 -0.41,-1.66 "/>
    <polygon id="178" class="fil134" points="15.85,15.26 -0.48,-1.56 -0.12,-2.04 "/>
    <polygon id="179" class="fil134" points="15.85,15.26 -0.19,-1.95 0.18,-2.42 "/>
    <polygon id="180" class="fil135" points="15.85,15.26 0.11,-2.32 0.49,-2.78 "/>
    <polygon id="181" class="fil135" points="15.85,15.26 0.42,-2.69 0.81,-3.13 "/>
    <polygon id="182" class="fil136" points="15.85,15.26 0.73,-3.05 1.14,-3.48 "/>
    <polygon id="183" class="fil136" points="15.85,15.26 1.06,-3.39 1.48,-3.81 "/>
    <polygon id="184" class="fil137" points="15.85,15.26 1.4,-3.72 1.83,-4.13 "/>
    <polygon id="185" class="fil138" points="15.85,15.26 1.74,-4.05 2.19,-4.43 "/>
    <polygon id="186" class="fil139" points="15.85,15.26 2.1,-4.36 2.55,-4.73 "/>
    <polygon id="187" class="fil140" points="15.85,15.26 2.46,-4.65 2.92,-5.01 "/>
    <polygon id="188" class="fil141" points="15.85,15.26 2.83,-4.94 3.3,-5.28 "/>
    <polygon id="189" class="fil142" points="15.85,15.26 3.21,-5.22 3.69,-5.54 "/>
    <polygon id="190" class="fil143" points="15.85,15.26 3.6,-5.48 4.09,-5.79 "/>
    <polygon id="191" class="fil144" points="15.85,15.26 3.99,-5.73 4.49,-6.02 "/>
    <polygon id="192" class="fil145" points="15.85,15.26 4.39,-5.96 4.9,-6.24 "/>
    <polygon id="193" class="fil146" points="15.85,15.26 4.8,-6.19 5.31,-6.45 "/>
    <polygon id="194" class="fil147" points="15.85,15.26 5.21,-6.4 5.73,-6.65 "/>
    <polygon id="195" class="fil148" points="15.85,15.26 5.63,-6.6 6.16,-6.83 "/>
    <polygon id="196" class="fil149" points="15.85,15.26 6.06,-6.78 6.6,-7 "/>
    <polygon id="197" class="fil150" points="15.85,15.26 6.49,-6.95 7.04,-7.15 "/>
    <polygon id="198" class="fil151" points="15.85,15.26 6.93,-7.11 7.48,-7.29 "/>
    <polygon id="199" class="fil151" points="15.85,15.26 7.37,-7.26 7.93,-7.42 "/>
    <polygon id="200" class="fil152" points="15.85,15.26 7.82,-7.39 8.38,-7.53 "/>
    <polygon id="201" class="fil152" points="15.85,15.26 8.27,-7.5 8.84,-7.63 "/>
    <polygon id="202" class="fil153" points="15.85,15.26 8.73,-7.61 9.31,-7.72 "/>
    <polygon id="203" class="fil153" points="15.85,15.26 9.19,-7.7 9.77,-7.79 "/>
    <polygon id="204" class="fil154" points="15.85,15.26 9.66,-7.78 10.24,-7.85 "/>
    <polygon id="205" class="fil155" points="15.85,15.26 10.13,-7.84 10.72,-7.9 "/>
    <polygon id="206" class="fil155" points="15.85,15.26 10.6,-7.89 11.2,-7.93 "/>
    <polygon id="207" class="fil156" points="15.85,15.26 11.08,-7.92 11.68,-7.95 "/>
    <polygon id="208" class="fil157" points="15.85,15.26 11.56,-7.94 12.16,-7.95 "/>
    <polygon id="209" class="fil158" points="15.85,15.26 12.04,-7.95 12.64,-7.94 "/>
    <polygon id="210" class="fil158" points="15.85,15.26 12.52,-7.94 13.13,-7.91 "/>
    <polygon id="211" class="fil159" points="15.85,15.26 13.01,-7.92 13.62,-7.87 "/>
    <polygon id="212" class="fil160" points="15.85,15.26 13.5,-7.88 14.11,-7.82 "/>
    <polygon id="213" class="fil161" points="15.85,15.26 13.99,-7.83 14.6,-7.76 "/>
    <polygon id="214" class="fil161" points="15.85,15.26 14.48,-7.77 15.09,-7.67 "/>
    <polygon id="215" class="fil162" points="15.85,15.26 14.97,-7.69 15.58,-7.58 "/>
    <polygon id="216" class="fil163" points="15.85,15.26 15.46,-7.6 16.07,-7.47 "/>
    <polygon id="217" class="fil164" points="15.85,15.26 15.95,-7.5 16.57,-7.35 "/>
    <polygon id="218" class="fil164" points="15.85,15.26 16.44,-7.38 17.06,-7.21 "/>
    <polygon id="219" class="fil165" points="15.85,15.26 16.94,-7.25 17.55,-7.07 "/>
    <polygon id="220" class="fil166" points="15.85,15.26 17.43,-7.1 18.04,-6.9 "/>
    <polygon id="221" class="fil167" points="15.85,15.26 17.92,-6.94 18.53,-6.73 "/>
    <polygon id="222" class="fil167" points="15.85,15.26 18.41,-6.77 19.01,-6.54 "/>
    <polygon id="223" class="fil168" points="15.85,15.26 18.89,-6.58 19.5,-6.34 "/>
    <polygon id="224" class="fil169" points="15.85,15.26 19.38,-6.39 19.98,-6.12 "/>
    <polygon id="225" class="fil170" points="15.85,15.26 19.86,-6.17 20.46,-5.89 "/>
    <polygon id="226" class="fil171" points="15.85,15.26 20.34,-5.95 20.94,-5.65 "/>
    <polygon id="227" class="fil172" points="15.85,15.26 20.82,-5.71 21.41,-5.4 "/>
    <polygon id="228" class="fil172" points="15.85,15.26 21.3,-5.46 21.89,-5.13 "/>
    <polygon id="229" class="fil173" points="15.85,15.26 21.77,-5.2 22.35,-4.85 "/>
    <polygon id="230" class="fil174" points="15.85,15.26 22.24,-4.92 22.82,-4.56 "/>
    <polygon id="231" class="fil175" points="15.85,15.26 22.7,-4.64 23.28,-4.26 "/>
    <polygon id="232" class="fil175" points="15.85,15.26 23.16,-4.34 23.73,-3.95 "/>
    <polygon id="233" class="fil176" points="15.85,15.26 23.62,-4.03 24.18,-3.62 "/>
    <polygon id="234" class="fil177" points="15.85,15.26 24.07,-3.7 24.63,-3.28 "/>
    <polygon id="235" class="fil178" points="15.85,15.26 24.51,-3.37 25.07,-2.94 "/>
    <polygon id="236" class="fil178" points="15.85,15.26 24.96,-3.02 25.5,-2.58 "/>
    <polygon id="237" class="fil179" points="15.85,15.26 25.39,-2.67 25.93,-2.21 "/>
    <polygon id="238" class="fil180" points="15.85,15.26 25.82,-2.3 26.35,-1.83 "/>
    <polygon id="239" class="fil181" points="15.85,15.26 26.25,-1.92 26.77,-1.44 "/>
    <polygon id="240" class="fil181" points="15.85,15.26 26.66,-1.53 27.18,-1.04 "/>
    <polygon id="241" class="fil182" points="15.85,15.26 27.07,-1.14 27.58,-0.63 "/>
    <polygon id="242" class="fil183" points="15.85,15.26 27.48,-0.73 27.98,-0.21 "/>
    <polygon id="243" class="fil184" points="15.85,15.26 27.88,-0.31 28.36,0.22 "/>
    <polygon id="244" class="fil184" points="15.85,15.26 28.27,0.12 28.74,0.66 "/>
    <polygon id="245" class="fil185" points="15.85,15.26 28.65,0.55 29.12,1.11 "/>
    <polygon id="246" class="fil185" points="15.85,15.26 29.02,1 29.48,1.56 "/>
    <polygon id="247" class="fil186" points="15.85,15.26 29.39,1.45 29.84,2.03 "/>
    <polygon id="248" class="fil186" points="15.85,15.26 29.75,1.91 30.19,2.5 "/>
    <polygon id="249" class="fil187" points="15.85,15.26 30.1,2.38 30.53,2.98 "/>
    <polygon id="250" class="fil187" points="15.85,15.26 30.44,2.86 30.86,3.47 "/>
    <polygon id="251" class="fil188" points="15.85,15.26 30.78,3.35 31.18,3.96 "/>
    <polygon id="252" class="fil188" points="15.85,15.26 31.1,3.84 31.49,4.46 "/>
    <polygon id="253" class="fil189" points="15.85,15.26 31.41,4.34 31.8,4.97 "/>
    <polygon id="254" class="fil190" points="15.85,15.26 31.72,4.84 32.09,5.49 "/>
    <polygon id="255" class="fil191" points="15.85,15.26 32.02,5.36 32.3,5.87 "/>
   </g>
  </g>
 </g>
</svg>
