<?xml version="1.0" encoding="UTF-8"?>
<!DOCTYPE svg PUBLIC "-//W3C//DTD SVG 1.1//EN" "http://www.w3.org/Graphics/SVG/1.1/DTD/svg11.dtd">
<!-- Creator: CorelDRAW 2020 (64-Bit) -->
<svg xmlns="http://www.w3.org/2000/svg" xml:space="preserve" width="90px" height="90px" version="1.1" style="shape-rendering:geometricPrecision; text-rendering:geometricPrecision; image-rendering:optimizeQuality; fill-rule:evenodd; clip-rule:evenodd"
viewBox="0 0 90 90"
 xmlns:xlink="http://www.w3.org/1999/xlink"
 xmlns:xodm="http://www.corel.com/coreldraw/odm/2003">
 <defs>
  <style type="text/css">
   <![CDATA[
    .fil10 {fill:none}
    .fil0 {fill:#2F3035}
    .fil7 {fill:#424348}
    .fil13 {fill:#505C68}
    .fil8 {fill:#53565D}
    .fil11 {fill:#54D5F5}
    .fil12 {fill:#76F0F5}
    .fil9 {fill:#7A7B80}
    .fil2 {fill:#7F8082}
    .fil3 {fill:#ADD827}
    .fil5 {fill:#FA8832}
    .fil6 {fill:#FF8B04}
    .fil1 {fill:#FFCA34}
    .fil4 {fill:#FFD44D}
   ]]>
  </style>
 </defs>
 <g id="Layer_x0020_1">
  <metadata id="CorelCorpID_0Corel-Layer"/>
  <rect class="fil0" x="19.49" y="54.03" width="59.65" height="10.27"/>
  <rect class="fil1" x="64.56" y="20.03" width="1.77" height="37.17"/>
  <rect class="fil0" x="23.84" y="30.89" width="1.26" height="26.95"/>
  <rect class="fil0" x="25.13" y="41.86" width="0.43" height="18.13"/>
  <path class="fil0" d="M9.06 66.67l17.2 0c0.42,0 0.87,-0.36 0.77,-0.77l-1.47 -5.91c-0.25,-1.01 -1.33,-2.15 -2.36,-2.15l-16.67 -0.01c-0.42,0 -0.77,0.35 -0.77,0.77l0 4.77c0,1.81 1.48,3.3 3.3,3.3z"/>
  <path class="fil2" d="M19.49 61.13c1.99,0 3.6,1.62 3.6,3.61 0,1.99 -1.61,3.6 -3.6,3.6 -1.99,0 -3.61,-1.61 -3.61,-3.6 0,-1.99 1.62,-3.61 3.61,-3.61zm0 1.68c1.06,0 1.93,0.86 1.93,1.93 0,1.06 -0.87,1.93 -1.93,1.93 -1.07,0 -1.93,-0.87 -1.93,-1.93 0,-1.07 0.86,-1.93 1.93,-1.93z"/>
  <path class="fil0" d="M19.49 62.19c-1.41,0 -2.55,1.14 -2.55,2.55 0,1.4 1.14,2.55 2.55,2.55 1.4,0 2.54,-1.15 2.54,-2.55 0,-1.41 -1.14,-2.55 -2.54,-2.55zm0 -0.47c-1.67,0 -3.02,1.35 -3.02,3.02 0,1.66 1.35,3.01 3.02,3.01 1.66,0 3.01,-1.35 3.01,-3.01 0,-1.67 -1.35,-3.02 -3.01,-3.02zm0 -2.08c-2.82,0 -5.1,2.28 -5.1,5.1 0,2.81 2.28,5.09 5.1,5.09 2.81,0 5.09,-2.28 5.09,-5.09 0,-2.82 -2.28,-5.1 -5.09,-5.1z"/>
  <path class="fil3" d="M21.02 58.09l-16.01 0c-6.52,0 -0.31,-24.51 1.95,-24.54l14.06 -0.17c1.25,-0.02 1.91,1.02 1.93,2.26l0.33 20.19c0.02,1.24 -1.01,2.26 -2.26,2.26z"/>
  <path class="fil2" d="M27.82 66.05l-2.42 0.01c0,-1.78 -0.43,-4.03 -1.54,-5.45 -0.83,-1.07 -2.06,-1.65 -3.37,-1.85 -2.18,-0.33 -4.42,0.47 -5.82,2.19 -1.14,1.42 -1.53,3.35 -1.53,5.11l-2.37 0.02c0.25,-4.01 1.13,-6.72 3.15,-8.46 1.29,-1.12 2.68,-2.09 5.48,-2.09 2.76,0 4.03,1.01 5.28,2.09 2,1.73 2.85,4.41 3.14,8.43z"/>
  <rect class="fil2" x="2.29" y="58.17" width="9.26" height="7.9" rx="0.75" ry="0.78"/>
  <rect class="fil4" x="2.44" y="59.81" width="1.01" height="3.26" rx="0.49" ry="0.49"/>
  <rect class="fil5" x="2.43" y="51.06" width="1.25" height="4.63" rx="0.56" ry="0.4"/>
  <rect class="fil6" x="12.69" y="31.27" width="2.18" height="1.69" rx="0.37" ry="0.37"/>
  <polygon class="fil2" points="15.97,33.44 11.72,33.44 11.72,33.44 12.3,32.86 15.39,32.86 15.97,33.44 "/>
  <path class="fil1" d="M68.46 62.64l12.16 0.27 4.79 -7.09 -16.95 6.82zm16.95 -6.82l-13.73 -31.47 -4.47 -3.28 -39.88 -0.14 0 35.09 38.96 0.1 2.17 6.52 16.95 -6.82z"/>
  <polygon class="fil6" points="83.08,50.68 82.98,36.42 76.97,36.27 "/>
  <polygon class="fil6" points="80.62,62.91 69.81,29.66 83.18,59.12 "/>
  <rect class="fil6" x="66.33" y="21.07" width="0.88" height="35.1"/>
  <path class="fil7" d="M28.82 59.04l0 7.08 9.94 0.14 0.01 -7.12c-3.31,-0.03 -6.64,-0.08 -9.95,-0.1zm8.62 7.26l-0.94 0 0 -7.17 0.94 0 0 7.17zm-6.31 -0.12l-0.79 0 0 -7.12 0.79 0 0 7.12z"/>
  <rect class="fil1" x="25.56" y="19.89" width="1.77" height="37.17"/>
  <rect class="fil6" x="27.33" y="20.93" width="0.88" height="35.1"/>
  <rect class="fil1" x="51.51" y="20.03" width="1.77" height="37.17"/>
  <rect class="fil6" x="53.28" y="21.07" width="0.88" height="35.1"/>
  <rect class="fil1" x="38.46" y="20.03" width="1.77" height="37.17"/>
  <rect class="fil6" x="40.23" y="21.07" width="0.88" height="35.1"/>
  <rect class="fil8" x="28.82" y="63.79" width="9.95" height="2.33"/>
  <rect class="fil9" x="36.5" y="59.13" width="0.93" height="7.18"/>
  <rect class="fil9" x="30.34" y="59.06" width="0.79" height="7.13"/>
  <path class="fil10" d="M19.81 43.65c0,0 -0.03,8.21 -0.02,9.12"/>
  <path class="fil10" d="M11.31 56.74c-0.61,0.97 1.41,-5.31 8.48,-3.97"/>
  <path class="fil2" d="M45.04 61.13c1.99,0 3.6,1.62 3.6,3.61 0,1.99 -1.61,3.6 -3.6,3.6 -1.99,0 -3.61,-1.61 -3.61,-3.6 0,-1.99 1.62,-3.61 3.61,-3.61zm0 1.68c1.06,0 1.93,0.86 1.93,1.93 0,1.06 -0.87,1.93 -1.93,1.93 -1.07,0 -1.94,-0.87 -1.94,-1.93 0,-1.07 0.87,-1.93 1.94,-1.93z"/>
  <path class="fil0" d="M45.04 62.19c-1.41,0 -2.55,1.14 -2.55,2.55 0,1.4 1.14,2.54 2.55,2.54 1.4,0 2.54,-1.14 2.54,-2.54 0,-1.41 -1.14,-2.55 -2.54,-2.55zm0 -0.47c-1.67,0 -3.02,1.35 -3.02,3.02 0,1.66 1.35,3.01 3.02,3.01 1.66,0 3.01,-1.35 3.01,-3.01 0,-1.67 -1.35,-3.02 -3.01,-3.02zm0 -2.08c-2.82,0 -5.1,2.28 -5.1,5.1 0,2.81 2.28,5.09 5.1,5.09 2.81,0 5.09,-2.28 5.09,-5.09 0,-2.82 -2.28,-5.1 -5.09,-5.1z"/>
  <path class="fil2" d="M56.38 61.13c1.99,0 3.61,1.62 3.61,3.61 0,1.99 -1.62,3.6 -3.61,3.6 -1.99,0 -3.6,-1.61 -3.6,-3.6 0,-1.99 1.61,-3.61 3.6,-3.61zm0 1.68c1.07,0 1.93,0.86 1.93,1.93 0,1.06 -0.86,1.93 -1.93,1.93 -1.06,0 -1.93,-0.87 -1.93,-1.93 0,-1.07 0.87,-1.93 1.93,-1.93z"/>
  <path class="fil0" d="M56.38 62.19c-1.4,0 -2.55,1.14 -2.55,2.55 0,1.4 1.15,2.54 2.55,2.54 1.41,0 2.55,-1.14 2.55,-2.54 0,-1.41 -1.14,-2.55 -2.55,-2.55zm0 -0.47c-1.66,0 -3.01,1.35 -3.01,3.02 0,1.66 1.35,3.01 3.01,3.01 1.67,0 3.02,-1.35 3.02,-3.01 0,-1.67 -1.35,-3.02 -3.02,-3.02zm0 -2.08c-2.81,0 -5.09,2.28 -5.09,5.1 0,2.81 2.28,5.09 5.09,5.09 2.82,0 5.1,-2.28 5.1,-5.09 0,-2.82 -2.28,-5.1 -5.1,-5.1z"/>
  <line class="fil10" x1="6.33" y1="56.74" x2="6.11" y2= "45.28" />
  <polygon class="fil2" points="40.52,58.57 62.01,58.57 64.25,60.8 63.33,61.71 61.48,59.86 41.05,59.86 39.2,61.71 38.28,60.8 "/>
  <line class="fil10" x1="11.32" y1="35.97" x2="11.2" y2= "46.09" />
  <path class="fil11" d="M6.14 44.92c-0.16,0.62 0.53,1.17 1.18,1.17l3.88 0c1.51,0 1.29,-0.13 1.77,-0.26l6.84 -1.95 0 -6.74c0.01,-0.64 -0.53,-1.17 -1.18,-1.17l-10.26 0c-1.31,3.46 -2.07,6.44 -2.23,8.95z"/>
  <path class="fil12" d="M14.99 45.26c2.39,-0.68 4.82,-1.14 4.82,-1.38 0,-0.23 0,-1.06 0,-1.92 -2.18,-3.34 -2.14,-2.87 -4.57,-5.99 0,0 -6.39,0 -6.87,0 -0.48,0 0,0 -0.65,1.65 2.42,1.59 4.46,5.31 7.27,7.64z"/>
  <rect class="fil2" x="15.77" y="48.66" width="2.44" height="0.57"/>
  <line class="fil10" x1="7.56" y1="35.87" x2="6.48" y2= "37.36" />
  <polyline class="fil10" points="8.03,47.09 6.48,44.67 6.48,42.64 "/>
  <line class="fil10" x1="6.48" y1="37.36" x2="6.48" y2= "38.04" />
  <rect class="fil13" x="5.96" y="37.3" width="1.76" height="6.09"/>
  <line class="fil10" x1="11.31" y1="56.74" x2="6.14" y2= "56.74" />
  <path class="fil10" d="M16.09 35.97c-3.16,0 -7.48,-0.05 -7.72,0"/>
  <path class="fil10" d="M14.11 45.51c2.01,-0.56 5.7,-1.63 5.7,-1.63l0 -2.32"/>
  <line class="fil10" x1="8.37" y1="35.97" x2="7.9" y2= "37.13" />
 </g>
</svg>
